<mxfile host="Electron" agent="Mozilla/5.0 (Windows NT 10.0; Win64; x64) AppleWebKit/537.36 (KHTML, like Gecko) draw.io/24.7.8 Chrome/128.0.6613.36 Electron/32.0.1 Safari/537.36" version="24.7.8">
  <diagram name="Page-1" id="5OE-TJhE8zVRZGr9SQH1">
    <mxGraphModel dx="1235" dy="771" grid="1" gridSize="10" guides="1" tooltips="1" connect="1" arrows="0" fold="1" page="1" pageScale="1" pageWidth="850" pageHeight="1100" math="0" shadow="0">
      <root>
        <mxCell id="0" />
        <mxCell id="1" parent="0" />
        <mxCell id="kOeY6bJKJXaW9cWby0th-12" value="" style="rounded=0;whiteSpace=wrap;html=1;fillColor=#ffe6cc;strokeColor=#d79b00;" parent="1" vertex="1">
          <mxGeometry x="259.95" y="100" width="650.05" height="620" as="geometry" />
        </mxCell>
        <mxCell id="kOeY6bJKJXaW9cWby0th-5" value="«service»&lt;br&gt;&lt;b&gt;HCMUT_SSO&lt;/b&gt;" style="html=1;whiteSpace=wrap;" parent="1" vertex="1">
          <mxGeometry x="960" y="605" width="110" height="50" as="geometry" />
        </mxCell>
        <mxCell id="kOeY6bJKJXaW9cWby0th-7" value="«service»&lt;br&gt;&lt;b&gt;BKPay&lt;/b&gt;" style="html=1;whiteSpace=wrap;" parent="1" vertex="1">
          <mxGeometry x="120" y="630" width="110" height="50" as="geometry" />
        </mxCell>
        <mxCell id="BIswvxviZQBVQyYqM8hH-38" style="edgeStyle=none;shape=connector;rounded=0;orthogonalLoop=1;jettySize=auto;html=1;exitX=1;exitY=0.5;exitDx=0;exitDy=0;entryX=0;entryY=0.5;entryDx=0;entryDy=0;strokeColor=default;align=center;verticalAlign=middle;fontFamily=Helvetica;fontSize=11;fontColor=default;labelBackgroundColor=default;endArrow=none;endFill=0;" edge="1" parent="1" source="kOeY6bJKJXaW9cWby0th-14" target="kOeY6bJKJXaW9cWby0th-5">
          <mxGeometry relative="1" as="geometry" />
        </mxCell>
        <mxCell id="kOeY6bJKJXaW9cWby0th-14" value="Authenticate" style="ellipse;whiteSpace=wrap;html=1;" parent="1" vertex="1">
          <mxGeometry x="780.05" y="600" width="110.05" height="60" as="geometry" />
        </mxCell>
        <mxCell id="kOeY6bJKJXaW9cWby0th-15" value="&lt;font style=&quot;font-size: 16px;&quot;&gt;HCMUT_SPSS&lt;/font&gt;" style="text;align=center;fontStyle=1;verticalAlign=middle;spacingLeft=3;spacingRight=3;strokeColor=none;rotatable=0;points=[[0,0.5],[1,0.5]];portConstraint=eastwest;html=1;" parent="1" vertex="1">
          <mxGeometry x="504.96999999999997" y="110" width="160" height="26" as="geometry" />
        </mxCell>
        <mxCell id="BIswvxviZQBVQyYqM8hH-37" style="edgeStyle=none;shape=connector;rounded=0;orthogonalLoop=1;jettySize=auto;html=1;exitX=0;exitY=0.6;exitDx=-6;exitDy=0;exitPerimeter=0;entryX=0.5;entryY=0;entryDx=0;entryDy=0;strokeColor=default;align=center;verticalAlign=middle;fontFamily=Helvetica;fontSize=11;fontColor=default;labelBackgroundColor=default;endArrow=none;endFill=0;" edge="1" parent="1" source="kOeY6bJKJXaW9cWby0th-22" target="kOeY6bJKJXaW9cWby0th-14">
          <mxGeometry relative="1" as="geometry" />
        </mxCell>
        <mxCell id="kOeY6bJKJXaW9cWby0th-22" value="User" style="shape=umlActor;verticalLabelPosition=bottom;verticalAlign=top;html=1;points=[[0,0.3333333333333333,0,0,0],[0,0.6,0,-6,0],[0,1,0,-6,23],[0.25,0.1,0,0,0],[0.5,0,0,0,-16],[0.5,0,0,0,0],[0.5,0.5,0,0,0],[0.5,1,0,0,28],[0.75,0.1,0,0,0],[1,0.3333333333333333,0,0,0],[1,0.6,0,5,0],[1,1,0,5,23]];" parent="1" vertex="1">
          <mxGeometry x="1020" y="380" width="30" height="60" as="geometry" />
        </mxCell>
        <mxCell id="kOeY6bJKJXaW9cWby0th-44" value="Student" style="shape=umlActor;verticalLabelPosition=bottom;verticalAlign=top;html=1;points=[[0,0.3333333333333333,0,0,0],[0,0.6,0,-6,0],[0,1,0,-6,23],[0.25,0.1,0,0,0],[0.5,0,0,0,-16],[0.5,0,0,0,0],[0.5,0.5,0,0,0],[0.5,1,0,0,28],[0.75,0.1,0,0,0],[1,0.3333333333333333,0,0,0],[1,0.6,0,5,0],[1,1,0,5,23]];" parent="1" vertex="1">
          <mxGeometry x="150" y="370" width="30" height="60" as="geometry" />
        </mxCell>
        <mxCell id="kOeY6bJKJXaW9cWby0th-106" style="edgeStyle=none;shape=connector;rounded=0;orthogonalLoop=1;jettySize=auto;html=1;exitX=0;exitY=0.6;exitDx=-6;exitDy=0;exitPerimeter=0;entryX=1;entryY=0.5;entryDx=0;entryDy=0;strokeColor=default;align=center;verticalAlign=middle;fontFamily=Helvetica;fontSize=11;fontColor=default;labelBackgroundColor=default;endArrow=none;endFill=0;" parent="1" source="kOeY6bJKJXaW9cWby0th-45" target="kOeY6bJKJXaW9cWby0th-96" edge="1">
          <mxGeometry relative="1" as="geometry" />
        </mxCell>
        <mxCell id="kOeY6bJKJXaW9cWby0th-110" style="edgeStyle=none;shape=connector;rounded=0;orthogonalLoop=1;jettySize=auto;html=1;exitX=0;exitY=0.6;exitDx=-6;exitDy=0;exitPerimeter=0;entryX=1;entryY=0.5;entryDx=0;entryDy=0;strokeColor=default;align=center;verticalAlign=middle;fontFamily=Helvetica;fontSize=11;fontColor=default;labelBackgroundColor=default;endArrow=none;endFill=0;" parent="1" source="kOeY6bJKJXaW9cWby0th-45" target="kOeY6bJKJXaW9cWby0th-109" edge="1">
          <mxGeometry relative="1" as="geometry" />
        </mxCell>
        <mxCell id="kOeY6bJKJXaW9cWby0th-45" value="SPSO" style="shape=umlActor;verticalLabelPosition=bottom;verticalAlign=top;html=1;points=[[0,0.3333333333333333,0,0,0],[0,0.6,0,-6,0],[0,1,0,-6,23],[0.25,0.1,0,0,0],[0.5,0,0,0,-16],[0.5,0,0,0,0],[0.5,0.5,0,0,0],[0.5,1,0,0,28],[0.75,0.1,0,0,0],[1,0.3333333333333333,0,0,0],[1,0.6,0,5,0],[1,1,0,5,23]];" parent="1" vertex="1">
          <mxGeometry x="1020" y="240" width="30" height="60" as="geometry" />
        </mxCell>
        <mxCell id="BIswvxviZQBVQyYqM8hH-25" style="edgeStyle=none;shape=connector;rounded=0;orthogonalLoop=1;jettySize=auto;html=1;exitX=0;exitY=0.5;exitDx=0;exitDy=0;entryX=1;entryY=0.5;entryDx=0;entryDy=0;strokeColor=default;align=center;verticalAlign=middle;fontFamily=Helvetica;fontSize=11;fontColor=default;labelBackgroundColor=default;endArrow=none;endFill=0;" edge="1" parent="1" source="kOeY6bJKJXaW9cWby0th-53" target="kOeY6bJKJXaW9cWby0th-96">
          <mxGeometry relative="1" as="geometry" />
        </mxCell>
        <mxCell id="kOeY6bJKJXaW9cWby0th-53" value="«system»&lt;br&gt;&lt;b&gt;Printers&lt;/b&gt;" style="html=1;whiteSpace=wrap;" parent="1" vertex="1">
          <mxGeometry x="960" y="500" width="110" height="50" as="geometry" />
        </mxCell>
        <mxCell id="kOeY6bJKJXaW9cWby0th-96" value="Manage printers" style="ellipse;whiteSpace=wrap;html=1;" parent="1" vertex="1">
          <mxGeometry x="780.05" y="300" width="110.05" height="60" as="geometry" />
        </mxCell>
        <mxCell id="kOeY6bJKJXaW9cWby0th-108" value="View students&#39; transactions" style="ellipse;whiteSpace=wrap;html=1;" parent="1" vertex="1">
          <mxGeometry x="780.05" y="210" width="110.05" height="60" as="geometry" />
        </mxCell>
        <mxCell id="kOeY6bJKJXaW9cWby0th-109" value="View monthly and annual reports" style="ellipse;whiteSpace=wrap;html=1;" parent="1" vertex="1">
          <mxGeometry x="780.0500000000001" y="120" width="110.05" height="60" as="geometry" />
        </mxCell>
        <mxCell id="kOeY6bJKJXaW9cWby0th-111" style="edgeStyle=none;shape=connector;rounded=0;orthogonalLoop=1;jettySize=auto;html=1;exitX=1;exitY=0.5;exitDx=0;exitDy=0;entryX=0;entryY=0.6;entryDx=-6;entryDy=0;entryPerimeter=0;strokeColor=default;align=center;verticalAlign=middle;fontFamily=Helvetica;fontSize=11;fontColor=default;labelBackgroundColor=default;endArrow=none;endFill=0;" parent="1" source="kOeY6bJKJXaW9cWby0th-108" target="kOeY6bJKJXaW9cWby0th-45" edge="1">
          <mxGeometry relative="1" as="geometry" />
        </mxCell>
        <mxCell id="BIswvxviZQBVQyYqM8hH-5" value="" style="group" vertex="1" connectable="0" parent="1">
          <mxGeometry x="300" y="440" width="420" height="240" as="geometry" />
        </mxCell>
        <mxCell id="BIswvxviZQBVQyYqM8hH-1" value="" style="rounded=0;whiteSpace=wrap;html=1;fillColor=#d5e8d4;strokeColor=#82b366;" vertex="1" parent="BIswvxviZQBVQyYqM8hH-5">
          <mxGeometry width="420" height="240" as="geometry" />
        </mxCell>
        <mxCell id="kOeY6bJKJXaW9cWby0th-92" value="&lt;div&gt;&lt;/div&gt;&lt;div&gt;&lt;br&gt;&lt;/div&gt;&lt;div&gt;&lt;br&gt;&lt;/div&gt;" style="html=1;shape=mxgraph.sysml.useCaseExtPt;whiteSpace=wrap;align=center;fontFamily=Helvetica;fontSize=11;fontColor=default;labelBackgroundColor=default;" parent="BIswvxviZQBVQyYqM8hH-5" vertex="1">
          <mxGeometry x="20" y="110" width="160" height="80" as="geometry" />
        </mxCell>
        <mxCell id="kOeY6bJKJXaW9cWby0th-93" value="Manage transactions" style="resizable=0;html=1;verticalAlign=middle;align=center;labelBackgroundColor=none;fontStyle=1;fontFamily=Helvetica;fontSize=11;fontColor=default;" parent="kOeY6bJKJXaW9cWby0th-92" connectable="0" vertex="1">
          <mxGeometry x="80" y="17" as="geometry">
            <mxPoint x="7" y="4" as="offset" />
          </mxGeometry>
        </mxCell>
        <mxCell id="kOeY6bJKJXaW9cWby0th-94" value="&lt;div&gt;extension points&lt;br&gt;&lt;/div&gt;&lt;div&gt;&lt;font style=&quot;font-size: 10px;&quot;&gt;Get more papers&lt;/font&gt;&lt;/div&gt;&lt;div&gt;&lt;font style=&quot;font-size: 10px;&quot;&gt;Choose viewing history&lt;/font&gt;&lt;/div&gt;" style="text;html=1;align=center;verticalAlign=middle;whiteSpace=wrap;rounded=0;fontFamily=Helvetica;fontSize=11;fontColor=default;labelBackgroundColor=none;" parent="kOeY6bJKJXaW9cWby0th-92" vertex="1">
          <mxGeometry x="-2.5" y="36" width="160" height="30" as="geometry" />
        </mxCell>
        <mxCell id="YAoNpxJlT7jZEqzN2cGg-6" value="View purchase history" style="ellipse;whiteSpace=wrap;html=1;" parent="BIswvxviZQBVQyYqM8hH-5" vertex="1">
          <mxGeometry x="280" y="60" width="110.05" height="60" as="geometry" />
        </mxCell>
        <mxCell id="kOeY6bJKJXaW9cWby0th-76" value="Purchase papers" style="ellipse;whiteSpace=wrap;html=1;" parent="BIswvxviZQBVQyYqM8hH-5" vertex="1">
          <mxGeometry x="280" y="170" width="110.05" height="60" as="geometry" />
        </mxCell>
        <mxCell id="BIswvxviZQBVQyYqM8hH-2" value="&lt;b&gt;&lt;font style=&quot;font-size: 14px;&quot;&gt;Transaction Management Module&lt;/font&gt;&lt;/b&gt;" style="text;html=1;align=center;verticalAlign=middle;whiteSpace=wrap;rounded=0;" vertex="1" parent="BIswvxviZQBVQyYqM8hH-5">
          <mxGeometry x="89.98000000000002" y="10" width="270" height="30" as="geometry" />
        </mxCell>
        <mxCell id="BIswvxviZQBVQyYqM8hH-3" style="rounded=0;orthogonalLoop=1;jettySize=auto;html=1;exitX=0;exitY=0.5;exitDx=0;exitDy=0;entryX=0.983;entryY=0.37;entryDx=0;entryDy=0;entryPerimeter=0;dashed=1;" edge="1" parent="BIswvxviZQBVQyYqM8hH-5" source="YAoNpxJlT7jZEqzN2cGg-6" target="kOeY6bJKJXaW9cWby0th-92">
          <mxGeometry relative="1" as="geometry" />
        </mxCell>
        <mxCell id="BIswvxviZQBVQyYqM8hH-4" style="rounded=0;orthogonalLoop=1;jettySize=auto;html=1;exitX=0;exitY=0.5;exitDx=0;exitDy=0;entryX=0.992;entryY=0.41;entryDx=0;entryDy=0;entryPerimeter=0;dashed=1;" edge="1" parent="BIswvxviZQBVQyYqM8hH-5" source="kOeY6bJKJXaW9cWby0th-76" target="kOeY6bJKJXaW9cWby0th-92">
          <mxGeometry relative="1" as="geometry" />
        </mxCell>
        <mxCell id="kOeY6bJKJXaW9cWby0th-70" value="«extend»" style="text;html=1;align=center;verticalAlign=middle;whiteSpace=wrap;rounded=0;fontFamily=Helvetica;fontSize=11;fontColor=default;labelBackgroundColor=none;rotation=-360;" parent="BIswvxviZQBVQyYqM8hH-5" vertex="1">
          <mxGeometry x="200" y="80" width="60" height="30" as="geometry" />
        </mxCell>
        <mxCell id="BIswvxviZQBVQyYqM8hH-20" value="«extend»" style="text;html=1;align=center;verticalAlign=middle;whiteSpace=wrap;rounded=0;fontFamily=Helvetica;fontSize=11;fontColor=default;labelBackgroundColor=none;rotation=-360;" vertex="1" parent="BIswvxviZQBVQyYqM8hH-5">
          <mxGeometry x="220" y="150" width="60" height="30" as="geometry" />
        </mxCell>
        <mxCell id="BIswvxviZQBVQyYqM8hH-23" value="" style="group" vertex="1" connectable="0" parent="1">
          <mxGeometry x="300" y="160" width="420.00000000000006" height="240" as="geometry" />
        </mxCell>
        <mxCell id="BIswvxviZQBVQyYqM8hH-7" value="" style="rounded=0;whiteSpace=wrap;html=1;fillColor=#d5e8d4;strokeColor=#82b366;movable=1;resizable=1;rotatable=1;deletable=1;editable=1;locked=0;connectable=1;" vertex="1" parent="BIswvxviZQBVQyYqM8hH-23">
          <mxGeometry width="420" height="240" as="geometry" />
        </mxCell>
        <mxCell id="BIswvxviZQBVQyYqM8hH-13" value="&lt;b&gt;&lt;font style=&quot;font-size: 14px;&quot;&gt;Printing Management Module&lt;/font&gt;&lt;/b&gt;" style="text;html=1;align=center;verticalAlign=middle;whiteSpace=wrap;rounded=0;movable=1;resizable=1;rotatable=1;deletable=1;editable=1;locked=0;connectable=1;" vertex="1" parent="BIswvxviZQBVQyYqM8hH-23">
          <mxGeometry x="70.03000000000003" y="10" width="270" height="30" as="geometry" />
        </mxCell>
        <mxCell id="kOeY6bJKJXaW9cWby0th-64" value="&lt;div&gt;&lt;/div&gt;&lt;div&gt;&lt;br&gt;&lt;/div&gt;&lt;div&gt;&lt;br&gt;&lt;/div&gt;" style="html=1;shape=mxgraph.sysml.useCaseExtPt;whiteSpace=wrap;align=center;fontFamily=Helvetica;fontSize=11;fontColor=default;labelBackgroundColor=default;movable=1;resizable=1;rotatable=1;deletable=1;editable=1;locked=0;connectable=1;" parent="BIswvxviZQBVQyYqM8hH-23" vertex="1">
          <mxGeometry x="10" y="80" width="177.5" height="80" as="geometry" />
        </mxCell>
        <mxCell id="kOeY6bJKJXaW9cWby0th-65" value="Manage print operations" style="resizable=1;html=1;verticalAlign=middle;align=center;labelBackgroundColor=none;fontStyle=1;fontFamily=Helvetica;fontSize=11;fontColor=default;movable=1;rotatable=1;deletable=1;editable=1;locked=0;connectable=1;" parent="kOeY6bJKJXaW9cWby0th-64" connectable="0" vertex="1">
          <mxGeometry x="88.75" y="17" as="geometry">
            <mxPoint x="7" y="4" as="offset" />
          </mxGeometry>
        </mxCell>
        <mxCell id="kOeY6bJKJXaW9cWby0th-83" value="&lt;div&gt;extension points&lt;br&gt;&lt;/div&gt;&lt;div&gt;&lt;font style=&quot;font-size: 10px;&quot;&gt;Choose printing documents&lt;/font&gt;&lt;/div&gt;&lt;div&gt;&lt;span style=&quot;font-size: 10px;&quot;&gt;Choose viewing history&lt;/span&gt;&lt;/div&gt;" style="text;html=1;align=center;verticalAlign=middle;whiteSpace=wrap;rounded=0;fontFamily=Helvetica;fontSize=11;fontColor=default;labelBackgroundColor=none;movable=1;resizable=1;rotatable=1;deletable=1;editable=1;locked=0;connectable=1;" parent="kOeY6bJKJXaW9cWby0th-64" vertex="1">
          <mxGeometry x="20" y="34" width="140" height="30" as="geometry" />
        </mxCell>
        <mxCell id="BIswvxviZQBVQyYqM8hH-19" style="rounded=0;orthogonalLoop=1;jettySize=auto;html=1;exitX=0;exitY=0.5;exitDx=0;exitDy=0;dashed=1;movable=1;resizable=1;rotatable=1;deletable=1;editable=1;locked=0;connectable=1;" edge="1" parent="BIswvxviZQBVQyYqM8hH-23" source="kOeY6bJKJXaW9cWby0th-58">
          <mxGeometry relative="1" as="geometry">
            <mxPoint x="190.05" y="120" as="targetPoint" />
          </mxGeometry>
        </mxCell>
        <mxCell id="kOeY6bJKJXaW9cWby0th-58" value="Print documents" style="ellipse;whiteSpace=wrap;html=1;movable=1;resizable=1;rotatable=1;deletable=1;editable=1;locked=0;connectable=1;" parent="BIswvxviZQBVQyYqM8hH-23" vertex="1">
          <mxGeometry x="280.05" y="150" width="110.05" height="60" as="geometry" />
        </mxCell>
        <mxCell id="YAoNpxJlT7jZEqzN2cGg-1" value="View printing history&amp;nbsp;" style="ellipse;whiteSpace=wrap;html=1;movable=1;resizable=1;rotatable=1;deletable=1;editable=1;locked=0;connectable=1;" parent="BIswvxviZQBVQyYqM8hH-23" vertex="1">
          <mxGeometry x="280.05" y="50" width="110.05" height="60" as="geometry" />
        </mxCell>
        <mxCell id="BIswvxviZQBVQyYqM8hH-18" style="rounded=0;orthogonalLoop=1;jettySize=auto;html=1;exitX=0;exitY=0.5;exitDx=0;exitDy=0;entryX=1;entryY=0.5;entryDx=0;entryDy=0;entryPerimeter=0;dashed=1;movable=1;resizable=1;rotatable=1;deletable=1;editable=1;locked=0;connectable=1;" edge="1" parent="BIswvxviZQBVQyYqM8hH-23" source="YAoNpxJlT7jZEqzN2cGg-1" target="kOeY6bJKJXaW9cWby0th-64">
          <mxGeometry relative="1" as="geometry" />
        </mxCell>
        <mxCell id="BIswvxviZQBVQyYqM8hH-21" value="«extend»" style="text;html=1;align=center;verticalAlign=middle;whiteSpace=wrap;rounded=0;fontFamily=Helvetica;fontSize=11;fontColor=default;labelBackgroundColor=none;rotation=-360;movable=1;resizable=1;rotatable=1;deletable=1;editable=1;locked=0;connectable=1;" vertex="1" parent="BIswvxviZQBVQyYqM8hH-23">
          <mxGeometry x="200.05" y="65" width="60" height="30" as="geometry" />
        </mxCell>
        <mxCell id="BIswvxviZQBVQyYqM8hH-22" value="«extend»" style="text;html=1;align=center;verticalAlign=middle;whiteSpace=wrap;rounded=0;fontFamily=Helvetica;fontSize=11;fontColor=default;labelBackgroundColor=none;rotation=-360;movable=1;resizable=1;rotatable=1;deletable=1;editable=1;locked=0;connectable=1;" vertex="1" parent="BIswvxviZQBVQyYqM8hH-23">
          <mxGeometry x="200.05" y="160" width="60" height="30" as="geometry" />
        </mxCell>
        <mxCell id="BIswvxviZQBVQyYqM8hH-28" style="edgeStyle=none;shape=connector;rounded=0;orthogonalLoop=1;jettySize=auto;html=1;exitX=0;exitY=0.5;exitDx=0;exitDy=0;entryX=1;entryY=0.5;entryDx=0;entryDy=0;strokeColor=default;align=center;verticalAlign=middle;fontFamily=Helvetica;fontSize=11;fontColor=default;labelBackgroundColor=default;endArrow=none;endFill=0;" edge="1" parent="1" source="kOeY6bJKJXaW9cWby0th-53" target="kOeY6bJKJXaW9cWby0th-58">
          <mxGeometry relative="1" as="geometry" />
        </mxCell>
        <mxCell id="BIswvxviZQBVQyYqM8hH-30" style="edgeStyle=none;shape=connector;rounded=0;orthogonalLoop=1;jettySize=auto;html=1;exitX=0.5;exitY=1;exitDx=0;exitDy=28;exitPerimeter=0;entryX=0.5;entryY=0;entryDx=0;entryDy=-16;entryPerimeter=0;strokeColor=default;align=center;verticalAlign=middle;fontFamily=Helvetica;fontSize=11;fontColor=default;labelBackgroundColor=default;endArrow=block;endFill=0;" edge="1" parent="1" source="kOeY6bJKJXaW9cWby0th-45" target="kOeY6bJKJXaW9cWby0th-22">
          <mxGeometry relative="1" as="geometry" />
        </mxCell>
        <mxCell id="BIswvxviZQBVQyYqM8hH-33" style="edgeStyle=none;shape=connector;rounded=0;orthogonalLoop=1;jettySize=auto;html=1;exitX=1;exitY=0.6;exitDx=5;exitDy=0;exitPerimeter=0;entryX=0;entryY=0.5;entryDx=0;entryDy=0;entryPerimeter=0;strokeColor=default;align=center;verticalAlign=middle;fontFamily=Helvetica;fontSize=11;fontColor=default;labelBackgroundColor=default;endArrow=none;endFill=0;" edge="1" parent="1" source="kOeY6bJKJXaW9cWby0th-44" target="kOeY6bJKJXaW9cWby0th-64">
          <mxGeometry relative="1" as="geometry" />
        </mxCell>
        <mxCell id="BIswvxviZQBVQyYqM8hH-34" style="edgeStyle=none;shape=connector;rounded=0;orthogonalLoop=1;jettySize=auto;html=1;exitX=1;exitY=0.6;exitDx=5;exitDy=0;exitPerimeter=0;entryX=0;entryY=0;entryDx=0;entryDy=0;strokeColor=default;align=center;verticalAlign=middle;fontFamily=Helvetica;fontSize=11;fontColor=default;labelBackgroundColor=default;endArrow=none;endFill=0;" edge="1" parent="1" source="kOeY6bJKJXaW9cWby0th-44" target="kOeY6bJKJXaW9cWby0th-94">
          <mxGeometry relative="1" as="geometry" />
        </mxCell>
        <mxCell id="BIswvxviZQBVQyYqM8hH-35" style="edgeStyle=none;shape=connector;rounded=0;orthogonalLoop=1;jettySize=auto;html=1;exitX=1;exitY=0.5;exitDx=0;exitDy=0;entryX=0;entryY=1;entryDx=0;entryDy=0;strokeColor=default;align=center;verticalAlign=middle;fontFamily=Helvetica;fontSize=11;fontColor=default;labelBackgroundColor=default;endArrow=none;endFill=0;" edge="1" parent="1" source="kOeY6bJKJXaW9cWby0th-7" target="kOeY6bJKJXaW9cWby0th-76">
          <mxGeometry relative="1" as="geometry" />
        </mxCell>
        <mxCell id="BIswvxviZQBVQyYqM8hH-36" style="edgeStyle=orthogonalEdgeStyle;shape=connector;rounded=0;orthogonalLoop=1;jettySize=auto;html=1;exitX=0.5;exitY=0;exitDx=0;exitDy=-16;exitPerimeter=0;entryX=1;entryY=0.6;entryDx=5;entryDy=0;entryPerimeter=0;strokeColor=default;align=center;verticalAlign=middle;fontFamily=Helvetica;fontSize=11;fontColor=default;labelBackgroundColor=default;endArrow=block;endFill=0;" edge="1" parent="1" source="kOeY6bJKJXaW9cWby0th-44" target="kOeY6bJKJXaW9cWby0th-22">
          <mxGeometry relative="1" as="geometry">
            <Array as="points">
              <mxPoint x="165" y="80" />
              <mxPoint x="1080" y="80" />
              <mxPoint x="1080" y="416" />
            </Array>
          </mxGeometry>
        </mxCell>
      </root>
    </mxGraphModel>
  </diagram>
</mxfile>
